<?xml version="1.0" standalone="no"?><!DOCTYPE svg PUBLIC "-//W3C//DTD SVG 1.1//EN" "http://www.w3.org/Graphics/SVG/1.1/DTD/svg11.dtd"><svg t="1638428237249" class="icon" viewBox="0 0 1024 1024" version="1.1" xmlns="http://www.w3.org/2000/svg" p-id="1016" xmlns:xlink="http://www.w3.org/1999/xlink" width="48" height="48"><defs><style type="text/css"></style></defs><path d="M488.513761 0h46.972478v126.031853h-46.972478zM171.552881 131.288073l89.116183 89.116184-33.214238 33.214238L138.333945 164.502312zM7.045872 481.46789h126.031853v46.972477H7.045872zM138.32455 845.410642l89.116184-89.116183 33.214238 33.209541-89.116183 89.120881zM488.513761 883.871706h46.972478V1009.908257h-46.972478zM852.390752 878.634275l-89.125578-89.125578 33.214239-33.209541 89.125578 89.120881zM890.917578 481.46789H1016.954128v46.972477h-126.03655zM885.689541 164.525798l-89.12088 89.120881-33.214239-33.209541 89.120881-89.125578z" fill="#6E6E96" p-id="1017"></path><path d="M519.853798 506.903486m-277.696587 0a277.696587 277.696587 0 1 0 555.393174 0 277.696587 277.696587 0 1 0-555.393174 0Z" fill="#F57878" p-id="1018"></path><path d="M521.953468 246.990679C368.58833 246.990679 244.256881 371.317431 244.256881 524.682569c0 153.369835 124.33145 277.696587 277.696587 277.696587 153.36044 0 277.701284-124.326752 277.701284-277.696587 0-153.365138-124.336147-277.69189-277.701284-277.69189z m10.380917 542.414679c-140.466495 0-254.337174-113.865982-254.337174-254.337175 0-140.466495 113.870679-254.337174 254.337174-254.337174s254.337174 113.870679 254.337175 254.337174c0.004697 140.466495-113.870679 254.337174-254.337175 254.337175z" fill="#FFFFFF" opacity=".22" p-id="1019"></path><path d="M517.25622 250.100257c140.175266 0 254.215046 114.03978 254.215046 254.210349s-114.03978 254.215046-254.215046 254.215045c-140.170569 0-254.210349-114.03978-254.210348-254.215045s114.03978-254.210349 254.210348-254.210349zM216.073394 504.310606c0 166.07589 135.111633 301.187523 301.182826 301.187522s301.187523-135.111633 301.187523-301.187522c0-166.071193-135.11633-301.182826-301.187523-301.182826S216.073394 338.234716 216.073394 504.310606z" fill="#6E6E96" p-id="1020"></path><path d="M507.861725 207.825028C354.496587 207.825028 230.165138 332.15178 230.165138 485.521615c0 153.365138 124.33145 277.701284 277.696587 277.701284 153.36044 0 277.701284-124.336147 277.701284-277.701284 0-153.369835-124.336147-277.696587-277.701284-277.696587z m-6.486899 516.457688c-141.185174 0-255.638312-114.453138-255.638312-255.633615 0-141.185174 114.453138-255.638312 255.638312-255.638312 141.180477 0 255.638312 114.453138 255.638312 255.638312 0 141.180477-114.457835 255.633615-255.638312 255.633615z" fill="#6E6E96" opacity=".15" p-id="1021"></path></svg>